<svg width="140" height="141" viewBox="0 0 140 141" fill="none" xmlns="http://www.w3.org/2000/svg">
<rect x="65" y="16.5269" width="9" height="108" fill="#434343" stroke="black" stroke-width="2"/>
<rect x="15.5" y="75.0269" width="9" height="108" transform="rotate(-90 15.5 75.0269)" fill="#434343" stroke="black" stroke-width="2"/>
<rect x="34.7983" y="112.145" width="9" height="108" transform="rotate(-135.415 34.7983 112.145)" fill="#434343" stroke="black" stroke-width="2"/>
<rect x="112.695" y="103.244" width="9" height="108" transform="rotate(131.905 112.695 103.244)" fill="#434343" stroke="black" stroke-width="2"/>
<mask id="path-5-inside-1_418_25" fill="white">
<path d="M70 0.526855C108.66 0.526855 140 31.8669 140 70.5269C140 109.187 108.66 140.527 70 140.527C31.3401 140.527 0 109.187 0 70.5269C0 31.8669 31.3401 0.526855 70 0.526855ZM70 18.5269C41.2812 18.5269 18 41.808 18 70.5269C18 99.2457 41.2812 122.527 70 122.527C98.7188 122.527 122 99.2457 122 70.5269C122 41.808 98.7188 18.5269 70 18.5269Z"/>
</mask>
<path d="M70 0.526855C108.66 0.526855 140 31.8669 140 70.5269C140 109.187 108.66 140.527 70 140.527C31.3401 140.527 0 109.187 0 70.5269C0 31.8669 31.3401 0.526855 70 0.526855ZM70 18.5269C41.2812 18.5269 18 41.808 18 70.5269C18 99.2457 41.2812 122.527 70 122.527C98.7188 122.527 122 99.2457 122 70.5269C122 41.808 98.7188 18.5269 70 18.5269Z" fill="#434343"/>
<path d="M70 0.526855V2.52686C107.555 2.52686 138 32.9715 138 70.5269H140H142C142 30.7624 109.765 -1.47314 70 -1.47314V0.526855ZM140 70.5269H138C138 108.082 107.555 138.527 70 138.527V140.527V142.527C109.765 142.527 142 110.291 142 70.5269H140ZM70 140.527V138.527C32.4446 138.527 2 108.082 2 70.5269H0H-2C-2 110.291 30.2355 142.527 70 142.527V140.527ZM0 70.5269H2C2 32.9715 32.4446 2.52686 70 2.52686V0.526855V-1.47314C30.2355 -1.47314 -2 30.7624 -2 70.5269H0ZM70 18.5269V16.5269C40.1766 16.5269 16 40.7035 16 70.5269H18H20C20 42.9126 42.3858 20.5269 70 20.5269V18.5269ZM18 70.5269H16C16 100.35 40.1766 124.527 70 124.527V122.527V120.527C42.3858 120.527 20 98.1411 20 70.5269H18ZM70 122.527V124.527C99.8234 124.527 124 100.35 124 70.5269H122H120C120 98.1411 97.6142 120.527 70 120.527V122.527ZM122 70.5269H124C124 40.7035 99.8234 16.5269 70 16.5269V18.5269V20.5269C97.6142 20.5269 120 42.9126 120 70.5269H122Z" fill="black" mask="url(#path-5-inside-1_418_25)"/>
<circle cx="70" cy="70.5269" r="15.5" fill="#757272" stroke="#434343"/>
</svg>
